<svg xmlns="http://www.w3.org/2000/svg" width="100" height="100" viewBox="0 0 100 100">
    <g fill="none" fill-rule="evenodd">
        <circle cx="50" cy="50" r="50" fill="#F4F4F4"/>
        <path fill="#2CB0E6" fill-rule="nonzero" d="M28 34v32h23v-2H30v-2.02l12.809-10.128c1.035.906 2.949 2.57 3.191 2.78 1.523 1.329 3.14 1.665 4.176 1.665 1.035 0 2.652-.336 4.18-1.664L70 40.996V58l2 2V34H28zm2 2h40v2.344L53.043 53.125c-1.121.977-2.262 1.172-2.867 1.172-.606 0-1.742-.2-2.864-1.172A95091.737 95091.737 0 0 1 30 38.035V36zm0 4.688c1.695 1.48 6.719 5.859 11.273 9.828L30 59.43V40.688zm33.988 16.3a1 1 0 0 0-.695 1.719L68.586 64H55v2h13.586l-5.293 5.293a.992.992 0 0 0-.273.973.99.99 0 0 0 .714.714.992.992 0 0 0 .973-.273L72.414 65l-7.707-7.707a1.008 1.008 0 0 0-.719-.305z"/>
    </g>
</svg>
